<?xml version="1.0" encoding="iso-8859-1"?>
<!-- Generator: Adobe Illustrator 18.0.0, SVG Export Plug-In . SVG Version: 6.00 Build 0)  -->
<!DOCTYPE svg PUBLIC "-//W3C//DTD SVG 1.1//EN" "http://www.w3.org/Graphics/SVG/1.1/DTD/svg11.dtd">
<svg version="1.1" id="Capa_1" xmlns="http://www.w3.org/2000/svg" xmlns:xlink="http://www.w3.org/1999/xlink" x="0px" y="0px"
	 viewBox="0 0 307.09 307.09" style="enable-background:new 0 0 307.09 307.09;" xml:space="preserve">
<path d="M213.746,93.01l-33.494-51.965c1.3-1.101,2.128-2.742,2.128-4.579V6c0-3.313-2.687-6-6-6h-45.671c-3.314,0-6,2.687-6,6
	v30.466c0,1.837,0.828,3.479,2.129,4.58L93.344,93.01c-0.624,0.97-0.956,2.098-0.956,3.251v45.536v70.228v70.679
	c0,13.447,10.938,24.387,24.384,24.387c7.328,0,13.913-3.25,18.387-8.383c4.474,5.133,11.059,8.383,18.387,8.383
	c7.328,0,13.913-3.25,18.387-8.383c4.474,5.133,11.059,8.383,18.387,8.383c13.445,0,24.384-10.94,24.384-24.387v-70.679v-70.228
	V96.261C214.702,95.107,214.37,93.979,213.746,93.01z M136.708,12h33.671v18.466h-0.217h-33.234h-0.22V12z M140.199,42.466h26.692
	l35.811,55.56v37.771h-98.314V98.026L140.199,42.466z M202.702,206.024h-98.314v-58.228h98.314V206.024z M190.318,295.09
	c-6.83,0-12.387-5.557-12.387-12.387c0-3.314-2.686-6-6-6c-3.313,0-6,2.686-6,6c0,6.83-5.557,12.387-12.387,12.387
	c-6.83,0-12.387-5.557-12.387-12.387c0-3.314-2.687-6-6-6c-3.314,0-6,2.686-6,6c0,6.83-5.557,12.387-12.387,12.387
	c-6.829,0-12.384-5.557-12.384-12.387v-64.679h98.314v64.679C202.702,289.533,197.147,295.09,190.318,295.09z"/>
<g>
</g>
<g>
</g>
<g>
</g>
<g>
</g>
<g>
</g>
<g>
</g>
<g>
</g>
<g>
</g>
<g>
</g>
<g>
</g>
<g>
</g>
<g>
</g>
<g>
</g>
<g>
</g>
<g>
</g>
</svg>
